# File created by Blade
# Date/Time:  Tue Sep 23 19:22:32 2014
# Frame Rate: 120.000 fps
#------------------------------------------------------
:FULLY-SPECIFIED
:DEGREES
2375
root -11.347960 32.850806 7.000177 393.715412 -0.952504 11.331251
Spine -38.243429 -11.982509 4.674712
Head -5.366829 12.493872 -9.377064
LeftShoulder -22.373699 43.047474 18.630889
LeftArm 50.096394 -48.610490 -69.132546
LeftForeArm 77.633013 -0.000000 18.860086
LeftHand -11.264716 0.000000 65.755996
LeftHandThumb1 -26.253704 0.000000 33.147579
RightShoulder -19.588995 -41.518733 -25.788935
RightArm 46.186415 30.030446 68.720465
RightForeArm 28.974628 -0.000000 14.715132
RightHand 20.863828 -0.000000 -17.058442
RightHandThumb1 -24.326973 -0.000000 -32.862282
LeftUpLeg -30.146459 20.550622 10.392538
LeftLeg 11.048839 -0.000000 -0.000000
LeftFoot 12.473042 6.484423 1.378709
LeftToeBase 4.980404 -0.000000 -0.000000
RightUpLeg -34.539025 -14.687827 -10.192890
RightLeg 19.878606 -0.000000 -0.000000
RightFoot -12.695901 -6.929146 5.734346
RightToeBase 3.973980 -0.000000 -0.000000
2376
root -11.235955 32.871323 7.008728 393.382321 -0.677070 11.434757
Spine -38.114356 -12.335546 4.774015
Head -5.209457 12.468170 -9.774469
LeftShoulder -22.381866 42.913848 18.551698
LeftArm 50.272358 -48.338863 -68.635363
LeftForeArm 78.069343 0.000000 18.499055
LeftHand -11.771882 0.000000 66.072404
LeftHandThumb1 -26.253704 0.000000 33.147579
RightShoulder -19.624320 -41.630389 -25.780829
RightArm 46.192720 29.025879 67.994108
RightForeArm 29.404462 -0.000000 13.497223
RightHand 20.990707 0.000000 -16.282653
RightHandThumb1 -24.326973 -0.000000 -32.862282
LeftUpLeg -29.866231 20.006029 10.146924
LeftLeg 11.063089 -0.000000 -0.000000
LeftFoot 12.217095 6.516009 0.007489
LeftToeBase 5.216158 -0.000000 -0.000000
RightUpLeg -33.818874 -14.959708 -10.393863
RightLeg 19.323810 -0.000000 -0.000000
RightFoot -12.451916 -7.158542 5.807977
RightToeBase 4.114918 -0.000000 -0.000000
2377
root -11.119797 32.890813 7.018263 393.122223 -0.408652 11.454758
Spine -38.074940 -12.585854 4.933524
Head -4.982357 12.428829 -10.174389
LeftShoulder -22.442892 42.808127 18.414807
LeftArm 50.742019 -48.092749 -68.275022
LeftForeArm 78.524308 -0.000000 17.973297
LeftHand -12.282605 0.000000 66.464744
LeftHandThumb1 -26.253704 0.000000 33.147579
RightShoulder -19.664345 -41.736522 -25.770746
RightArm 46.187531 27.954609 67.096929
RightForeArm 29.979773 -0.000000 12.092648
RightHand 21.117850 -0.000000 -15.360211
RightHandThumb1 -24.326973 -0.000000 -32.862282
LeftUpLeg -29.617226 19.513393 9.918411
LeftLeg 10.991862 -0.000000 -0.000000
LeftFoot 11.775224 6.429906 -1.616300
LeftToeBase 4.945128 -0.000000 -0.000000
RightUpLeg -33.111717 -15.340955 -10.451235
RightLeg 18.585708 -0.000000 -0.000000
RightFoot -12.102261 -7.287393 5.724897
RightToeBase 4.224452 -0.000000 -0.000000
2378
root -11.001344 32.906504 7.031374 392.843308 -0.097332 11.380654
Spine -38.037394 -12.806268 5.194123
Head -4.665056 12.383861 -10.562688
LeftShoulder -22.481936 42.633848 18.314060
LeftArm 51.153161 -47.796867 -67.727330
LeftForeArm 79.845675 -0.000000 17.142864
LeftHand -13.463118 -0.000000 67.181580
LeftHandThumb1 -26.253704 0.000000 33.147579
RightShoulder -19.698583 -41.883901 -25.736563
RightArm 46.202168 26.951674 66.182919
RightForeArm 30.621280 -0.000000 10.752644
RightHand 21.188071 -0.000000 -14.160563
RightHandThumb1 -24.326973 -0.000000 -32.862282
LeftUpLeg -29.335287 19.031718 9.793773
LeftLeg 10.900108 -0.000000 -0.000000
LeftFoot 11.084856 6.090677 -3.483319
LeftToeBase 4.262397 -0.000000 -0.000000
RightUpLeg -32.312816 -15.894709 -10.338650
RightLeg 17.660266 -0.000000 -0.000000
RightFoot -11.692252 -7.174650 5.601171
RightToeBase 4.428186 -0.000000 -0.000000
2379
root -10.873368 32.917787 7.046128 392.580147 0.175766 11.314858
Spine -38.026988 -12.940187 5.393382
Head -4.287202 12.322221 -10.921444
LeftShoulder -22.375151 42.454312 18.366715
LeftArm 51.461295 -47.522664 -67.330671
LeftForeArm 79.765816 -0.000000 16.763234
LeftHand -13.476749 -0.000000 67.226639
LeftHandThumb1 -26.253704 0.000000 33.147579
RightShoulder -19.781225 -42.030412 -25.670458
RightArm 46.226076 25.930276 65.179954
RightForeArm 31.444126 0.000000 9.344291
RightHand 21.005196 -0.000000 -12.822779
RightHandThumb1 -24.326973 -0.000000 -32.862282
LeftUpLeg -29.033696 18.522119 9.618591
LeftLeg 10.750169 -0.000000 -0.000000
LeftFoot 10.326691 5.486018 -5.212135
LeftToeBase 3.640210 -0.000000 -0.000000
RightUpLeg -31.526012 -16.572070 -10.212067
RightLeg 16.683391 -0.000000 -0.000000
RightFoot -11.266562 -6.928579 5.376992
RightToeBase 4.650467 -0.000000 -0.000000
2380
root -10.742270 32.925785 7.052632 392.448970 0.423042 11.188017
Spine -38.144320 -13.012066 5.662702
Head -3.900818 12.241064 -11.266287
LeftShoulder -22.266899 42.292817 18.438405
LeftArm 51.791698 -47.261013 -66.921570
LeftForeArm 80.058490 0.000000 16.281731
LeftHand -13.902926 -0.000000 67.498011
LeftHandThumb1 -26.253704 0.000000 33.147579
RightShoulder -19.785157 -42.087489 -25.643540
RightArm 46.208892 25.070669 64.277657
RightForeArm 32.209502 -0.000000 7.992595
RightHand 20.821062 -0.000000 -11.423515
RightHandThumb1 -24.326973 -0.000000 -32.862282
LeftUpLeg -28.904310 18.129937 9.396294
LeftLeg 10.612461 -0.000000 -0.000000
LeftFoot 9.998301 4.624017 -5.980064
LeftToeBase 2.331401 -0.000000 -0.000000
RightUpLeg -30.916895 -17.229318 -10.004985
RightLeg 15.726803 -0.000000 -0.000000
RightFoot -10.910916 -6.566006 5.395111
RightToeBase 5.106724 -0.000000 -0.000000
